# xmcd
#
# Track frame offsets:
#  150
#  20010
#  38310
#  55260
#  73785
#  113985
#  136710
#  157935
#  180510
#  206835
#
# Disc length: 2972 seconds
#
# Revision: 0
# Processed by: cddbd v1.5PL3 Copyright (c) Steve Scherf et al.
# Submitted via: AltoMP3_Maker 3.0
#
DISCID=800b9a0a
DTITLE=Yakety Yak and The Mike Espy Band - The Evening Sun
DYEAR=1900
DGENRE=
TTITLE0=Do Ya Know Nothin'
TTITLE1=Leavin For N.Y.
TTITLE2=Pieces
TTITLE3=Rollin' Tumblin'
TTITLE4=The Evening Sun
TTITLE5=Look On Yonders Wall
TTITLE6=Crossroads
TTITLE7=Ruby
TTITLE8=Muddy Tribute
TTITLE9=Big Man Boogie
EXTD=
EXTT0=
EXTT1=
EXTT2=
EXTT3=
EXTT4=
EXTT5=
EXTT6=
EXTT7=
EXTT8=
EXTT9=
PLAYORDER=
